<svg width="21" height="21" viewBox="0 0 21 21" fill="none" xmlns="http://www.w3.org/2000/svg">
<path d="M18.9837 16.671C18.9925 17.0339 18.9297 17.3949 18.7989 17.7335C18.6681 18.0721 18.4718 18.3816 18.2213 18.6443C17.9709 18.907 17.6711 19.1178 17.3392 19.2646C17.0072 19.4115 16.6496 19.4914 16.2867 19.5H7.32771C7.13472 19.4881 6.95425 19.4004 6.82573 19.256C6.6972 19.1115 6.63104 18.9221 6.64171 18.729C6.63104 18.5359 6.6972 18.3465 6.82573 18.202C6.95425 18.0576 7.13472 17.9699 7.32771 17.958H16.2867C16.633 17.9625 16.967 17.8297 17.2156 17.5884C17.4641 17.3472 17.6069 17.0173 17.6127 16.671V4.329C17.6067 3.98287 17.4637 3.65323 17.2152 3.41222C16.9667 3.17121 16.6329 3.03845 16.2867 3.043H7.32771C7.13896 3.02042 6.96504 2.92944 6.83886 2.78726C6.71268 2.64509 6.64299 2.46159 6.64299 2.2715C6.64299 2.08141 6.71268 1.89791 6.83886 1.75574C6.96504 1.61356 7.13896 1.52258 7.32771 1.5H16.2867C16.6498 1.50818 17.0078 1.58787 17.3401 1.73452C17.6724 1.88118 17.9725 2.09191 18.2233 2.35467C18.4741 2.61742 18.6706 2.92705 18.8016 3.26583C18.9326 3.6046 18.9955 3.96589 18.9867 4.329L18.9837 16.671ZM12.3497 11.323H4.64971L7.44971 14.123C7.52115 14.195 7.5777 14.2804 7.61614 14.3743C7.65457 14.4682 7.67414 14.5687 7.67372 14.6702C7.67331 14.7716 7.65291 14.872 7.6137 14.9656C7.57449 15.0591 7.51724 15.1441 7.44521 15.2155C7.29974 15.3598 7.10291 15.4404 6.89803 15.4395C6.69314 15.4387 6.49699 15.3565 6.35271 15.211L2.23871 11.1C2.16699 11.0283 2.11009 10.9432 2.07128 10.8495C2.03246 10.7558 2.01248 10.6554 2.01248 10.554C2.01248 10.4526 2.03246 10.3522 2.07128 10.2585C2.11009 10.1648 2.16699 10.0797 2.23871 10.008L6.35271 5.892C6.42375 5.81765 6.50892 5.75823 6.60323 5.71725C6.69755 5.67627 6.7991 5.65454 6.90192 5.65335C7.00475 5.65215 7.10678 5.67151 7.20202 5.71029C7.29726 5.74906 7.38379 5.80648 7.45654 5.87916C7.52929 5.95184 7.58678 6.03832 7.62565 6.13352C7.66451 6.22873 7.68396 6.33074 7.68286 6.43357C7.68176 6.5364 7.66012 6.63796 7.61923 6.73232C7.57833 6.82667 7.519 6.9119 7.44471 6.983L4.64471 9.783H12.3447C12.6007 9.783 12.8077 10.129 12.8077 10.554C12.8077 10.979 12.6057 11.323 12.3497 11.323Z" fill="black" fill-opacity="0.45"/>
</svg>
