<svg width="11" height="11" viewBox="0 0 11 11" fill="none" xmlns="http://www.w3.org/2000/svg">
<path d="M10.1315 10.1317C10.2074 10.0555 10.25 9.95246 10.25 9.845C10.25 9.73754 10.2074 9.63445 10.1315 9.55833L7.21103 6.63889C7.7794 5.94132 8.08911 5.06869 8.08769 4.16889C8.08651 3.1299 7.67325 2.13379 6.93858 1.39912C6.20391 0.664436 5.20782 0.251176 4.16884 0.25C3.12986 0.251176 2.13377 0.664436 1.3991 1.39912C0.664431 2.13379 0.251176 3.1299 0.25 4.16889C0.251176 5.20788 0.664431 6.20398 1.3991 6.93866C2.13377 7.67334 3.12986 8.0866 4.16884 8.08778C5.06864 8.0892 5.94125 7.77948 6.63881 7.21111L9.55933 10.1317C9.63513 10.2073 9.7378 10.2499 9.84489 10.25C9.8981 10.2501 9.95081 10.2397 9.99999 10.2194C10.0492 10.1991 10.0939 10.1693 10.1315 10.1317ZM7.27714 4.16889C7.27626 4.99285 6.94855 5.78281 6.36593 6.36544C5.7833 6.94807 4.99335 7.27578 4.1694 7.27667C3.34535 7.27593 2.55525 6.94829 1.97251 6.36564C1.38977 5.78299 1.06198 4.99295 1.0611 4.16889C1.06198 3.34493 1.38969 2.55496 1.97231 1.97233C2.55494 1.3897 3.34489 1.06199 4.16884 1.06111C4.99289 1.06185 5.78299 1.38949 6.36573 1.97214C6.94848 2.55478 7.27626 3.34483 7.27714 4.16889Z" fill="#676767" stroke="#676767" stroke-width="0.5"/>
</svg>
