<svg width="21" height="21" viewBox="0 0 21 21" fill="none" xmlns="http://www.w3.org/2000/svg">
<path d="M10.4985 19.5C10.2715 19.5 10.0465 19.492 9.8305 19.475C9.35525 19.4311 8.90933 19.2259 8.5668 18.8936C8.22426 18.5612 8.00573 18.1217 7.9475 17.648L7.8765 17.157C7.84194 17.0035 7.77269 16.86 7.67406 16.7375C7.57543 16.6149 7.45003 16.5166 7.3075 16.45C7.1835 16.383 7.0605 16.312 6.9425 16.238C6.7603 16.1194 6.54881 16.0536 6.3315 16.048C6.23371 16.0469 6.13663 16.0645 6.0455 16.1L5.5835 16.284C5.31929 16.3887 5.0377 16.4427 4.7535 16.443C4.42131 16.4485 4.09294 16.3716 3.7977 16.2193C3.50245 16.067 3.24953 15.8439 3.0615 15.57C2.80966 15.1998 2.58571 14.8114 2.3915 14.408C2.19215 13.9746 2.14724 13.486 2.26423 13.0235C2.38121 12.561 2.65305 12.1525 3.0345 11.866L3.4255 11.556C3.54133 11.4499 3.63125 11.3187 3.68829 11.1723C3.74534 11.026 3.76799 10.8685 3.7545 10.712C3.7545 10.649 3.7545 10.579 3.7545 10.5C3.7545 10.421 3.7545 10.351 3.7545 10.288C3.76799 10.1315 3.74534 9.97402 3.68829 9.82768C3.63125 9.68134 3.54133 9.55007 3.4255 9.444L3.0345 9.134C2.6532 8.84738 2.38148 8.43889 2.2645 7.97645C2.14753 7.514 2.19234 7.02545 2.3915 6.592C2.58554 6.1885 2.8095 5.80008 3.0615 5.43C3.24953 5.1561 3.50245 4.93303 3.7977 4.7807C4.09294 4.62836 4.42131 4.55151 4.7535 4.557C5.0377 4.55734 5.31929 4.61128 5.5835 4.716L6.0455 4.9C6.13663 4.93545 6.23371 4.9531 6.3315 4.952C6.54881 4.94636 6.7603 4.88059 6.9425 4.762C7.0605 4.688 7.1835 4.616 7.3075 4.55C7.45012 4.48356 7.57559 4.38526 7.67424 4.26269C7.77289 4.14011 7.84208 3.99653 7.8765 3.843L7.9475 3.353C8.00566 2.87908 8.22412 2.43929 8.56662 2.10661C8.90912 1.77392 9.35508 1.56835 9.8305 1.524C10.0505 1.508 10.2745 1.5 10.4985 1.5C10.7225 1.5 10.9475 1.508 11.1675 1.524C11.6427 1.56817 12.0885 1.77358 12.4309 2.1061C12.7732 2.43863 12.9915 2.87827 13.0495 3.352L13.1215 3.842C13.1554 3.99558 13.2244 4.13926 13.3229 4.26188C13.4214 4.3845 13.5468 4.48275 13.6895 4.549C13.8085 4.612 13.9285 4.682 14.0555 4.761C14.2377 4.87959 14.4492 4.94536 14.6665 4.951C14.7646 4.95216 14.862 4.93451 14.9535 4.899L15.4145 4.715C15.6787 4.61035 15.9603 4.55641 16.2445 4.556C16.5767 4.5506 16.905 4.62749 17.2002 4.77982C17.4955 4.93214 17.7484 5.15517 17.9365 5.429C18.1892 5.79902 18.4138 6.18744 18.6085 6.591C18.8076 7.02445 18.8525 7.513 18.7355 7.97545C18.6185 8.43789 18.3468 8.84638 17.9655 9.133L17.5735 9.443C17.4577 9.54907 17.3679 9.68037 17.311 9.82673C17.2542 9.97309 17.2317 10.1306 17.2455 10.287C17.2455 10.357 17.2455 10.428 17.2455 10.499C17.2455 10.57 17.2455 10.641 17.2455 10.711C17.2317 10.8674 17.2542 11.0249 17.311 11.1713C17.3679 11.3176 17.4577 11.4489 17.5735 11.555L17.9655 11.865C18.3469 12.1515 18.6188 12.56 18.7358 13.0225C18.8528 13.485 18.8078 13.9736 18.6085 14.407C18.4136 14.8105 18.189 15.1989 17.9365 15.569C17.7484 15.8428 17.4955 16.0659 17.2002 16.2182C16.905 16.3705 16.5767 16.4474 16.2445 16.442C15.9603 16.4416 15.6787 16.3876 15.4145 16.283L14.9535 16.099C14.862 16.0635 14.7646 16.0458 14.6665 16.047C14.4492 16.0526 14.2377 16.1184 14.0555 16.237C13.9275 16.317 13.8085 16.386 13.6895 16.449C13.547 16.5154 13.4216 16.6137 13.3231 16.7363C13.2247 16.8589 13.1557 17.0025 13.1215 17.156L13.0495 17.647C12.9917 18.1207 12.7734 18.5603 12.431 18.8927C12.0886 19.2251 11.6427 19.4302 11.1675 19.474C10.9515 19.492 10.7265 19.5 10.4985 19.5ZM6.3255 14.546C6.8243 14.5535 7.31141 14.6981 7.7335 14.964C7.8465 15.033 7.9335 15.084 8.0175 15.128C8.3683 15.3034 8.67277 15.559 8.90614 15.8742C9.1395 16.1894 9.29518 16.5553 9.3605 16.942L9.4315 17.432C9.44171 17.5673 9.49751 17.6952 9.58977 17.7947C9.68204 17.8943 9.80532 17.9596 9.9395 17.98C10.1195 17.993 10.3075 18 10.4985 18C10.6895 18 10.8775 17.993 11.0575 17.98C11.1917 17.9596 11.315 17.8943 11.4072 17.7947C11.4995 17.6952 11.5553 17.5673 11.5655 17.432L11.6365 16.942C11.702 16.5552 11.8579 16.1893 12.0914 15.8741C12.3249 15.5589 12.6295 15.3033 12.9805 15.128C13.0715 15.079 13.1605 15.028 13.2655 14.964C13.6872 14.698 14.174 14.5534 14.6725 14.546C14.9588 14.5452 15.2425 14.5991 15.5085 14.705L15.9695 14.889C16.0565 14.9246 16.1495 14.9433 16.2435 14.944C16.3315 14.9469 16.4188 14.9284 16.4981 14.89C16.5773 14.8517 16.6461 14.7947 16.6985 14.724C16.9087 14.4157 17.0955 14.0921 17.2575 13.756C17.3081 13.6302 17.3138 13.4909 17.2737 13.3614C17.2337 13.232 17.1503 13.1202 17.0375 13.045L16.6455 12.734C16.3429 12.4848 16.1036 12.1675 15.9472 11.8081C15.7907 11.4486 15.7216 11.0573 15.7455 10.666V10.5V10.334C15.7217 9.94259 15.7908 9.5511 15.9473 9.19152C16.1037 8.83193 16.3429 8.51445 16.6455 8.265L17.0375 7.955C17.1503 7.87962 17.2338 7.7677 17.2739 7.63804C17.3139 7.50839 17.3081 7.3689 17.2575 7.243C17.0955 6.90686 16.9087 6.58329 16.6985 6.275C16.6461 6.20399 16.5772 6.14678 16.4977 6.10828C16.4183 6.06978 16.3307 6.05116 16.2425 6.054C16.1488 6.05479 16.0562 6.07346 15.9695 6.109L15.5085 6.294C15.2422 6.3998 14.9581 6.45376 14.6715 6.453C14.1733 6.44577 13.6867 6.30112 13.2655 6.035C13.1755 5.981 13.0785 5.924 12.9805 5.87C12.6296 5.69516 12.325 5.4399 12.0914 5.12502C11.8579 4.81014 11.702 4.44454 11.6365 4.058L11.5655 3.568C11.5563 3.43242 11.5008 3.30411 11.4084 3.20453C11.3159 3.10496 11.192 3.04017 11.0575 3.021C10.8775 3.008 10.6895 3.001 10.4985 3.001C10.3075 3.001 10.1195 3.008 9.9395 3.021C9.80496 3.04017 9.6811 3.10496 9.58862 3.20453C9.49615 3.30411 9.44068 3.43242 9.4315 3.568L9.3605 4.058C9.29544 4.44455 9.13997 4.81026 8.90676 5.12532C8.67355 5.44038 8.36919 5.69588 8.0185 5.871C7.9335 5.916 7.8435 5.971 7.7345 6.036C7.31285 6.30206 6.82601 6.44669 6.3275 6.454C6.0412 6.45422 5.75748 6.39992 5.4915 6.294L5.0315 6.109C4.9448 6.07353 4.85216 6.05487 4.7585 6.054C4.67026 6.05107 4.58264 6.06966 4.50319 6.10816C4.42375 6.14667 4.35487 6.20393 4.3025 6.275C4.092 6.58328 3.90481 6.90685 3.7425 7.243C3.69242 7.36897 3.68693 7.50828 3.72695 7.63779C3.76697 7.76731 3.85009 7.87924 3.9625 7.955L4.3545 8.265C4.65718 8.51434 4.89653 8.83181 5.05296 9.19142C5.20939 9.55103 5.27845 9.94257 5.2545 10.334V10.5V10.666C5.27853 11.0573 5.20951 11.4487 5.05307 11.8082C4.89663 12.1676 4.65723 12.4849 4.3545 12.734L3.9625 13.045C3.85002 13.1205 3.76683 13.2322 3.72679 13.3616C3.68676 13.491 3.6923 13.6302 3.7425 13.756C3.90465 14.0922 4.09184 14.4158 4.3025 14.724C4.35482 14.7948 4.42357 14.8518 4.50284 14.8902C4.58211 14.9285 4.6695 14.947 4.7575 14.944C4.85149 14.9432 4.94448 14.9245 5.0315 14.889L5.4915 14.705C5.75687 14.5995 6.03992 14.5455 6.3255 14.546ZM10.4985 14.246C9.75665 14.246 9.03146 14.026 8.41469 13.6137C7.79792 13.2015 7.31728 12.6156 7.03357 11.9301C6.74986 11.2447 6.67583 10.4905 6.82085 9.76294C6.96587 9.0354 7.32342 8.36722 7.84826 7.84294C8.37311 7.31865 9.04167 6.96181 9.76936 6.81757C10.4971 6.67333 11.2512 6.74816 11.9363 7.0326C12.6215 7.31704 13.2069 7.79831 13.6185 8.41552C14.03 9.03273 14.2493 9.75815 14.2485 10.5C14.2474 11.4942 13.852 12.4474 13.149 13.1505C12.4459 13.8535 11.4927 14.2489 10.4985 14.25V14.246ZM10.4985 8.246C10.0537 8.246 9.6188 8.37786 9.24888 8.62492C8.87896 8.87197 8.59057 9.22314 8.42015 9.63404C8.24974 10.0449 8.20495 10.4971 8.29144 10.9335C8.37793 11.3698 8.59183 11.7708 8.9061 12.0856C9.22036 12.4004 9.6209 12.615 10.0571 12.7023C10.4933 12.7895 10.9456 12.7456 11.3568 12.5759C11.768 12.4062 12.1196 12.1184 12.3674 11.7489C12.6151 11.3795 12.7477 10.9448 12.7485 10.5C12.7477 9.90351 12.5104 9.33167 12.0886 8.90989C11.6668 8.4881 11.095 8.25079 10.4985 8.25V8.246Z" fill="black" fill-opacity="0.45"/>
</svg>
